<svg id="baseline-account_circle-24px" xmlns="http://www.w3.org/2000/svg" viewBox="0 0 35 35">
  <defs>
    <style>
      .cls-1 {
        fill: #fff;
      }

      .cls-2 {
        fill: none;
      }
    </style>
  </defs>
  <path id="Path_804" data-name="Path 804" class="cls-1" d="M16.583,2A14.583,14.583,0,1,0,31.167,16.583,14.589,14.589,0,0,0,16.583,2Zm0,4.375a4.375,4.375,0,1,1-4.375,4.375A4.369,4.369,0,0,1,16.583,6.375Zm0,20.708a10.5,10.5,0,0,1-8.75-4.7c.044-2.9,5.833-4.492,8.75-4.492s8.706,1.59,8.75,4.492A10.5,10.5,0,0,1,16.583,27.083Z" transform="translate(0.917 0.917)"/>
  <path id="Path_805" data-name="Path 805" class="cls-2" d="M0,0H35V35H0Z"/>
</svg>
