<svg id="baseline-build-24px" xmlns="http://www.w3.org/2000/svg" viewBox="0 0 60 60">
  <defs>
    <style>
      .cls-1, .cls-2 {
        fill: none;
      }

      .cls-2 {
        stroke: #ff4081;
        stroke-miterlimit: 10;
        stroke-width: 2px;
      }
    </style>
  </defs>
  <path id="Path_797" data-name="Path 797" class="cls-1" d="M0,0H60V60H0Z"/>
  <path id="Path_798" data-name="Path 798" class="cls-2" d="M55.317,45.85,32.567,23.1a16.045,16.045,0,0,0-3.75-17.25,16.527,16.527,0,0,0-18.5-3.25l10.75,10.75-7.5,7.5-11-10.75a16.112,16.112,0,0,0,3.25,18.5,16.045,16.045,0,0,0,17.25,3.75L45.817,55.1a2.417,2.417,0,0,0,3.5,0l5.75-5.75A2.252,2.252,0,0,0,55.317,45.85Z" transform="translate(1.433 1.65)"/>
</svg>
