<svg xmlns="http://www.w3.org/2000/svg" viewBox="0 0 182.642 38.27">
  <defs>
    <style>
      .cls-1 {
        fill: #fff;
      }

      .cls-2 {
        fill: #62b55a;
      }

      .cls-3 {
        fill: #009f43;
      }
    </style>
  </defs>
  <g id="Symbol_1_12" data-name="Symbol 1 – 12" transform="translate(-31 -24)">
    <g id="logo" transform="translate(-3.5 6.804)">
      <g id="fix" transform="translate(170.899 17.196)">
        <g id="fix-2" data-name="fix" transform="translate(0)">
          <path id="Path_1" data-name="Path 1" class="cls-1" d="M354.787,43.909l3.107-4.609,2.693-3.832c.932-1.605,1.5-1.968,3.366-1.968h3.262v4.453H365.3a1.709,1.709,0,0,0-1.657.725l-3,4.712-2.8,4.816L353.8,54.628h-5.9Z" transform="translate(-322.008 -25.057)"/>
          <path id="Path_2" data-name="Path 2" class="cls-2" d="M346.3,43.909l-3.47-5.282c-.414-.621-.725-.725-1.605-.725H330.3V33.5h13.1a3.211,3.211,0,0,1,3.418,1.968l12.946,19.16h-5.852Z" transform="translate(-313.522 -25.057)"/>
          <rect id="Rectangle_3" data-name="Rectangle 3" class="cls-1" width="4.971" height="4.22" rx="0.7" transform="translate(16.778 1.918)"/>
          <path id="Path_3" data-name="Path 3" class="cls-1" d="M300.489,29.782H297.9V25.639h2.589v-.621c0-6.939,5.7-7.819,8.648-7.819a11.341,11.341,0,0,1,1.761.1v4.453l-1.191-.1c-1.5,0-3.936.466-3.936,3.521v.414h11.237c1.968,0,2.8.88,2.8,2.8v13.05a.829.829,0,0,0,.932.932h1.605v4.453h-4.971c-1.968,0-2.8-.829-2.8-2.8V30.714a.829.829,0,0,0-.932-.932h-7.871V46.767h-5.282Z" transform="translate(-297.9 -17.196)"/>
          <path id="Path_4" data-name="Path 4" class="cls-3" d="M367.052,48.739h0L364.307,44.7h0L361.2,49.309l3.055,4.246h0Z" transform="translate(-328.421 -30.457)"/>
        </g>
      </g>
      <g id="guana" transform="translate(46.514 25.121)">
        <g id="guana-2" data-name="guana">
          <path id="Path_5" data-name="Path 5" class="cls-1" d="M67.073,32.5c4.868,0,6.525,3,6.525,3h.1v-.518a2.044,2.044,0,0,1,2.33-1.968H80.9v4.453H79.242a.829.829,0,0,0-.932.829V52.851c0,7.25-5.644,9.994-11.134,9.994a16.83,16.83,0,0,1-7.509-1.812l1.605-4.143a13.671,13.671,0,0,0,5.852,1.4c3.211,0,5.955-1.346,5.955-5.178v-.984c0-.518.052-1.139.052-1.139h-.1c-1.191,1.761-3.055,2.745-5.852,2.745-6.059,0-9.476-4.868-9.476-10.719S60.962,32.5,67.073,32.5Zm6.162,10.564c0-4.816-2.382-6.11-5.282-6.11s-4.919,2.33-4.919,5.9,1.864,6.421,5.282,6.421C70.8,49.278,73.235,47.828,73.235,43.064Z" transform="translate(-57.7 -32.5)"/>
          <path id="Path_6" data-name="Path 6" class="cls-1" d="M109.489,38.886a.829.829,0,0,0-.932-.932H106.9V33.5h5.023c1.968,0,2.8.88,2.8,2.8V45.98c0,2.589.673,4.3,3.262,4.3,3.832,0,5.9-3.366,5.9-7.146V33.5h5.282V49.294a.829.829,0,0,0,.932.932h1.657V54.68h-4.868c-1.812,0-2.8-.88-2.8-2.382v-.621a8.377,8.377,0,0,1,.052-.932h-.1a7.975,7.975,0,0,1-7.25,4.4c-4.505,0-7.3-2.278-7.3-8.026Z" transform="translate(-81.422 -32.982)"/>
          <path id="Path_7" data-name="Path 7" class="cls-1" d="M171.826,40.889h.673v-.155c0-3-1.191-4.143-3.884-4.143-.932,0-2.8.259-2.8,1.4v1.139h-4.868V36.85c0-3.936,5.541-4.35,7.768-4.35,7.043,0,9.114,3.677,9.114,8.441v7.871a.829.829,0,0,0,.932.932h1.657V54.2H175.71c-1.968,0-2.693-1.087-2.693-2.33a9.119,9.119,0,0,1,.052-.932h-.1a6.887,6.887,0,0,1-6.369,3.728c-3.78,0-7.2-2.382-7.2-6.577C159.243,41.407,168.357,40.889,171.826,40.889Zm-4.039,9.684c2.8,0,4.816-3,4.816-5.541v-.518h-.932c-2.745,0-7.094.362-7.094,3.314,0,1.4,1.036,2.693,3.159,2.693Z" transform="translate(-106.734 -32.5)"/>
          <path id="Path_8" data-name="Path 8" class="cls-1" d="M205.589,38.449a.829.829,0,0,0-.932-.932H203V33.063h4.868c1.864,0,2.8.88,2.8,2.382v.621a5.849,5.849,0,0,1-.1.932h.1a8.13,8.13,0,0,1,7.457-4.4c4.661,0,7.353,2.434,7.353,8.026v8.234a.829.829,0,0,0,.932.932h1.657v4.453H223.04c-1.968,0-2.8-.829-2.8-2.8V41.659c0-2.589-.673-4.3-3.314-4.3a5.8,5.8,0,0,0-5.7,4.3,8.907,8.907,0,0,0-.414,2.8v9.735h-5.23Z" transform="translate(-127.758 -32.545)"/>
          <path id="Path_9" data-name="Path 9" class="cls-1" d="M268.031,40.889h.673v-.155c0-3-1.191-4.143-3.884-4.143-.932,0-2.8.259-2.8,1.4v1.139h-4.868V36.85c0-3.936,5.541-4.35,7.768-4.35,7.043,0,9.114,3.677,9.114,8.441v7.871a.829.829,0,0,0,.932.932h1.657V54.2h-4.816c-1.968,0-2.693-1.087-2.693-2.33a9.119,9.119,0,0,1,.052-.932h-.1a6.887,6.887,0,0,1-6.369,3.728c-3.78,0-7.2-2.382-7.2-6.577C255.448,41.407,264.562,40.889,268.031,40.889Zm-4.039,9.684c2.8,0,4.816-3,4.816-5.541v-.518h-.932c-2.745,0-7.094.362-7.094,3.314,0,1.4,1.036,2.693,3.159,2.693Z" transform="translate(-153.071 -32.5)"/>
        </g>
      </g>
      <g id="i" transform="translate(34.5 19.114)">
        <g id="i-2" data-name="i" transform="translate(0 0)">
          <path id="Path_10" data-name="Path 10" class="cls-1" d="M37.089,38.886a.829.829,0,0,0-.932-.932H34.5V33.5h5.023c1.968,0,2.8.88,2.8,2.8v13a.829.829,0,0,0,.932.932h2.071V54.68H39.834c-1.968,0-2.8-.829-2.8-2.8Z" transform="translate(-34.5 -26.975)"/>
          <rect id="Rectangle_4" data-name="Rectangle 4" class="cls-1" width="4.971" height="4.22" rx="0.7" transform="translate(2.693)"/>
        </g>
      </g>
    </g>
  </g>
</svg>
